# xmcd
#
# Track frame offsets:
#	150
#	20237
#	36496
#	57346
#	78775
#	99226
#	119991
#	138750
#	156165
#	173962
#	196764
#	215501
#	237105
#	256857
#	281027
#
# Disc length: 4039 seconds
#
# Revision: 0
# Processed by: cddbd v1.5.1PL0 Copyright (c) Steve Scherf et al.
# Submitted via: dBpowerAMP V4.0
#
DISCID=d40fc50f
DTITLE=许美静 - 静电
DYEAR=2000
DGENRE=Blues
TTITLE0=迫在眉梢
TTITLE1=昙花
TTITLE2=多事之秋
TTITLE3=今天的太阳
TTITLE4=挽歌
TTITLE5=挂失
TTITLE6=Falling
TTITLE7=空气中的谜
TTITLE8=眼睛
TTITLE9=当阳光变冷
TTITLE10=你抽的烟
TTITLE11=铁窗
TTITLE12=明知道
TTITLE13=城里的月光
TTITLE14=蔓延
EXTD=
EXTT0=
EXTT1=
EXTT2=
EXTT3=
EXTT4=
EXTT5=
EXTT6=
EXTT7=
EXTT8=
EXTT9=
EXTT10=
EXTT11=
EXTT12=
EXTT13=
EXTT14=
PLAYORDER=
